<svg width="30" height="30" viewBox="0 0 30 30" fill="none" xmlns="http://www.w3.org/2000/svg">
<g clip-path="url(#clip0_220_112)">
<path d="M25.3969 5.45064C23.4518 4.55736 21.399 3.92017 19.29 3.55501C19.2709 3.5518 19.2513 3.55457 19.2338 3.56297C19.2164 3.57136 19.2019 3.58496 19.1925 3.60189C18.9281 4.07064 18.6356 4.68376 18.4313 5.16376C16.158 4.81907 13.8458 4.81907 11.5725 5.16376C11.3455 4.62861 11.0876 4.1071 10.8 3.60189C10.7906 3.58496 10.7762 3.57136 10.7587 3.56297C10.7412 3.55457 10.7216 3.5518 10.7025 3.55501C8.59314 3.91876 6.54001 4.55626 4.59564 5.45064C4.57892 5.45685 4.56496 5.46881 4.55626 5.48439C0.667512 11.295 -0.399364 16.9631 0.123762 22.56C0.127512 22.5875 0.140637 22.6106 0.163137 22.6294C2.42808 24.3061 4.96082 25.5867 7.65376 26.4169C7.67278 26.4229 7.69321 26.4227 7.71209 26.4163C7.73098 26.4099 7.74732 26.3976 7.75876 26.3813C8.33751 25.5938 8.84876 24.7631 9.29251 23.8894C9.30173 23.8714 9.30489 23.8509 9.30151 23.831C9.29813 23.811 9.2884 23.7927 9.27376 23.7788L9.24001 23.7581C8.43256 23.4468 7.65025 23.0738 6.90001 22.6425C6.87907 22.6306 6.86349 22.6112 6.85651 22.5881C6.84953 22.5651 6.85168 22.5403 6.86251 22.5188L6.89064 22.4831C7.04939 22.3644 7.20439 22.2425 7.35564 22.1175C7.36889 22.1069 7.38479 22.1 7.40163 22.0977C7.41847 22.0954 7.43563 22.0977 7.45126 22.1044C12.3619 24.3469 17.6775 24.3469 22.5281 22.1044C22.5442 22.0969 22.5621 22.0942 22.5797 22.0966C22.5973 22.0989 22.6139 22.1061 22.6275 22.1175C22.7788 22.2425 22.9338 22.3644 23.0925 22.4831C23.1057 22.4922 23.1164 22.5044 23.1235 22.5187C23.1306 22.5331 23.134 22.5489 23.1332 22.5649C23.1325 22.5809 23.1276 22.5964 23.1192 22.61C23.1108 22.6236 23.099 22.6348 23.085 22.6425C22.338 23.0807 21.5544 23.4533 20.7431 23.7563C20.7302 23.7609 20.7185 23.7684 20.7088 23.7781C20.699 23.7878 20.6916 23.7996 20.6869 23.8125C20.6823 23.825 20.6805 23.8383 20.6814 23.8516C20.6824 23.8648 20.6862 23.8777 20.6925 23.8894C21.1425 24.7613 21.6581 25.5938 22.2244 26.3813C22.2358 26.3976 22.2522 26.4099 22.2711 26.4163C22.2899 26.4227 22.3104 26.4229 22.3294 26.4169C25.0276 25.5913 27.5648 24.3103 29.8313 22.6294C29.8425 22.6214 29.8519 22.6111 29.8587 22.5991C29.8655 22.5871 29.8696 22.5738 29.8706 22.56C30.4969 16.0894 28.8225 10.4681 25.4344 5.48626C25.4314 5.47776 25.4265 5.47008 25.42 5.46389C25.4135 5.45769 25.4055 5.45314 25.3969 5.45064ZM10.0256 19.1513C8.54626 19.1513 7.32939 17.7938 7.32939 16.1288C7.32939 14.4638 8.52376 13.1044 10.0256 13.1044C11.5388 13.1044 12.7444 14.4731 12.7219 16.1288C12.7219 17.7938 11.5275 19.1513 10.0256 19.1513ZM19.9931 19.1513C18.5156 19.1513 17.2969 17.7938 17.2969 16.1288C17.2969 14.4638 18.4913 13.1044 19.9931 13.1044C21.5063 13.1044 22.7138 14.4731 22.6894 16.1288C22.6894 17.7938 21.5063 19.1513 19.9931 19.1513Z" fill="white"/>
</g>
<defs>
<clipPath id="clip0_220_112">
<rect width="30" height="30" fill="white"/>
</clipPath>
</defs>
</svg>
