<svg width="30" height="24" viewBox="0 0 30 24" fill="none" xmlns="http://www.w3.org/2000/svg">
<path d="M9.42375 24C20.745 24 26.9381 14.7642 26.9381 6.76892C26.9406 6.50924 26.9369 6.24956 26.9269 5.98988C28.1322 5.13007 29.1728 4.0662 30 2.8479C28.8733 3.33576 27.68 3.65795 26.4581 3.80415C27.7455 3.04673 28.7096 1.85474 29.1712 0.449871C27.9624 1.15639 26.6385 1.65167 25.2581 1.91379C24.3303 0.940965 23.1026 0.296496 21.7652 0.0802122C20.4277 -0.136072 19.0551 0.0878992 17.86 0.717433C16.6649 1.34697 15.714 2.34693 15.1546 3.56243C14.5952 4.77793 14.4585 6.14114 14.7656 7.44088C12.3181 7.32063 9.92371 6.69491 7.7378 5.60436C5.5519 4.51381 3.62339 2.98281 2.0775 1.11076C1.29296 2.44572 1.05366 4.02454 1.40814 5.52686C1.76262 7.02917 2.68433 8.34244 3.98625 9.20017C3.01014 9.16912 2.05536 8.91102 1.2 8.44698V8.53006C1.20239 9.92822 1.69466 11.2828 2.59373 12.365C3.4928 13.4473 4.7436 14.191 6.135 14.4707C5.60676 14.614 5.06106 14.6854 4.51312 14.683C4.12672 14.6869 3.74094 14.6516 3.36188 14.5777C3.75449 15.7819 4.52021 16.8348 5.55157 17.5887C6.58293 18.3426 7.82816 18.7596 9.1125 18.7812C6.93019 20.4666 4.23609 21.3813 1.4625 21.3786C0.973685 21.3822 0.485149 21.3545 0 21.2955C2.81517 23.0631 6.08487 24.0014 9.42375 24Z" fill="white"/>
</svg>
