<svg width="265" height="264" viewBox="0 0 265 264" fill="none" xmlns="http://www.w3.org/2000/svg">
<g clip-path="url(#clip0_53_322)">
<path fill-rule="evenodd" clip-rule="evenodd" d="M132.49 0.0602417L134.965 2.53511L211.245 78.8151L212.523 80.0932L212.521 80.1017L261.545 129.125L264.02 131.6L261.545 134.075L249.953 145.667L247.665 147.955L244.987 150.632L212.48 183.139L211.645 183.975L211.635 183.985L204.303 191.317L154.062 241.558L146.735 248.885L145.899 249.72L140.855 254.765L138.56 257.06L138.555 257.055L134.965 260.645L132.49 263.12L130.015 260.645L126.424 257.054L124.135 254.765L121.459 252.089L118.422 249.052L117.655 248.285L109.701 240.331L65.0601 195.69L65.0623 195.702L57.1151 187.755L17.3151 147.955L15.027 145.667L15.0363 145.656L3.44514 134.065L0.970276 131.59L3.44514 129.115L55.2753 77.2849L55.2741 77.2761L56.4951 76.0551L130.015 2.53511L132.49 0.0602417ZM54.8679 174.584C54.823 173.505 54.8 172.421 54.8 171.33C54.8 152.962 61.0542 136.056 71.5394 122.617C53.0553 124.109 36.5471 132.562 24.6048 145.345L54.9201 175.66C54.9003 175.302 54.8828 174.943 54.8679 174.584ZM76.6088 127.505C67.3178 139.665 61.8 154.848 61.8 171.33C61.8 172.343 61.8218 173.351 61.8644 174.354C61.9978 177.484 62.3354 180.563 62.8522 183.582L121.825 242.555C122.144 242.609 122.464 242.661 122.785 242.711C122.373 241.482 121.99 240.151 121.663 238.726C113.216 226.127 108.28 210.968 108.28 194.66C108.28 190.161 108.656 185.75 109.377 181.457C110.963 172.009 114.222 163.129 118.833 155.13C118.393 152.733 118.114 149.598 118.782 146.316C103.27 143.285 89.3804 135.736 78.5382 125.088C77.8783 125.879 77.2349 126.685 76.6088 127.505ZM122.335 138.048C112.249 130.034 99.9771 124.664 86.557 122.975C96.2583 131.446 108.237 137.364 121.456 139.692C121.75 139.154 122.046 138.61 122.335 138.048ZM121.941 164.331C119.337 169.95 117.433 175.959 116.343 182.247C115.644 186.279 115.28 190.427 115.28 194.66C115.28 204.747 117.349 214.349 121.085 223.069C121.567 219.912 122.337 217.267 123.05 215.26C123.54 213.97 124.17 211.86 124.1 209.29C123.994 205.766 122.754 203.616 121.514 201.468C120.426 199.581 119.338 197.695 119.02 194.88C118.76 192.56 119.03 189.11 121.82 184.59C122.69 183.02 123.92 180.33 124.36 176.78C124.77 173.45 124.32 170.71 123.9 169C123.112 167.139 122.467 165.601 121.941 164.331ZM149.7 194.66C149.7 183.648 147.235 173.217 142.826 163.879C142.267 165.232 141.564 166.913 140.68 169C140.26 170.71 139.81 173.45 140.22 176.78C140.66 180.33 141.89 183.02 142.76 184.59C145.55 189.11 145.82 192.56 145.56 194.88C145.242 197.695 144.154 199.581 143.066 201.468C141.827 203.616 140.586 205.766 140.48 209.29C140.41 211.86 141.04 213.97 141.53 215.26C142.294 217.411 143.124 220.295 143.594 223.757C147.52 214.855 149.7 205.014 149.7 194.66ZM56.6956 85.7641C59.1078 96.6456 63.7515 106.687 70.1307 115.38H69.6845L69.9894 115.724C50.1954 117.567 32.5253 126.696 19.6611 140.381L10.8697 131.59L56.6956 85.7641ZM240.377 145.344L213.363 172.357C213.368 172.012 213.37 171.667 213.37 171.32V171.318C213.361 153.137 207.226 136.382 196.923 123.007C212.573 125.024 226.652 132.051 237.508 142.44C238.491 143.381 239.448 144.349 240.377 145.344ZM142.361 138.274C143.741 137.165 145.163 136.107 146.622 135.1C156.84 128.057 168.951 123.577 182.047 122.588C171.472 131.98 158.136 138.315 143.408 140.213C143.35 140.107 143.292 140.001 143.234 139.894L143.132 139.706C142.875 139.236 142.616 138.761 142.361 138.274ZM145.913 146.932C146.39 149.752 146.197 152.435 145.84 154.597C152.746 166.353 156.71 180.043 156.71 194.66C156.71 211.373 151.526 226.879 142.691 239.659C142.371 240.922 142.01 242.105 141.628 243.202C141.963 243.167 142.297 243.129 142.631 243.089L205.839 179.881C206.176 177.068 206.36 174.214 206.36 171.33C206.36 154.804 200.813 139.584 191.477 127.408C190.893 126.647 190.295 125.898 189.682 125.161L189.622 125.088C177.977 136.524 162.819 144.399 145.913 146.932ZM254.12 131.6L245.329 140.391C243.79 138.754 242.183 137.182 240.512 135.68C228.91 125.256 214.214 118.207 197.967 116.076L198.303 115.706L197.807 115.69C203.791 107.61 208.273 98.3518 210.849 88.3287L254.12 131.6ZM113.79 94.6731C100.295 98.2405 88.2104 105.281 78.5494 114.77C70.3715 104.955 64.75 92.9514 62.6924 79.7573L120.981 21.4684C121.376 25.3015 123.644 28.582 126.852 30.3773C127.367 33.2109 128.299 39.3056 127.41 42.19C126.22 46.01 125.04 51.29 125.43 55.51C125.594 57.2429 125.983 58.4193 126.314 59.4236C126.79 60.865 127.149 61.9517 126.56 63.82C126.449 64.1707 126.343 64.4857 126.241 64.7859C125.424 67.1991 124.932 68.6508 125.35 79.91C125.35 79.91 119.03 80.17 119.43 84.79L101.76 82.42C101.76 82.42 96.49 81.96 96.75 86.18C97.01 90.4 98.33 91.13 98.33 91.13C98.33 91.13 100.04 92.32 102.35 92.71C104.66 93.11 110.39 93.7 110.39 93.7C110.39 93.7 111.801 94.0431 113.79 94.6731ZM87.5501 116.045C101.318 117.797 113.975 123.08 124.593 130.957C124.628 130.653 124.657 130.341 124.68 130.02C124.71 129.55 124.73 129.16 124.73 128.91C124.89 126.86 124.84 124.29 124.14 121.46C123.96 120.7 123.74 119.99 123.51 119.33C123.19 118.91 122.7 118.39 122.01 118.29C121.331 118.183 120.764 118.519 120.53 118.658L120.51 118.67C119.68 119.15 118.22 119.66 115.52 119.73C115.45 119.73 114.71 119.72 114.32 119.13C113.97 118.6 114.04 117.84 114.54 117.31C114.54 117.31 119.75 112.03 122.52 109.33C125.29 106.62 124.37 102.93 124.37 102.93C124.37 102.93 124.158 101.458 123.133 99.8751C109.699 101.92 97.4839 107.668 87.5501 116.045ZM140.02 131.23C151.425 122.663 165.213 117.096 180.217 115.716C169.546 106.845 156.291 100.988 141.74 99.4523C140.462 101.186 140.21 102.93 140.21 102.93C140.21 102.93 139.29 106.62 142.06 109.33C144.83 112.03 150.04 117.31 150.04 117.31C150.54 117.84 150.61 118.6 150.26 119.13C149.87 119.72 149.13 119.73 149.06 119.73C146.36 119.66 144.9 119.15 144.07 118.67L144.05 118.658C143.816 118.519 143.249 118.183 142.57 118.29C141.88 118.39 141.39 118.91 141.07 119.33C140.84 119.99 140.62 120.7 140.44 121.46C139.74 124.29 139.69 126.86 139.85 128.91C139.85 129.16 139.87 129.55 139.9 130.02C139.929 130.438 139.97 130.84 140.02 131.23ZM189.616 114.777C179.484 104.828 166.698 97.5699 152.41 94.1828C153.502 93.8673 154.19 93.7 154.19 93.7C154.19 93.7 159.92 93.11 162.23 92.71C164.54 92.32 166.25 91.13 166.25 91.13C166.25 91.13 167.57 90.4 167.83 86.18C168.09 81.96 162.82 82.42 162.82 82.42L145.15 84.79C145.55 80.17 139.23 79.91 139.23 79.91C139.648 68.6508 139.156 67.1993 138.339 64.7861L138.338 64.7837C138.237 64.4842 138.13 64.1698 138.02 63.82C137.431 61.9517 137.79 60.865 138.266 59.4236C138.597 58.4193 138.986 57.2429 139.15 55.51C139.54 51.29 138.36 46.01 137.17 42.19C136.305 39.3824 137.165 33.5333 137.686 30.6106C141.128 28.8776 143.586 25.4763 143.999 21.4684L204.998 82.4675C202.629 94.5983 197.234 105.637 189.616 114.777ZM132.49 26.2C129.21 26.2 126.56 23.54 126.56 20.27C126.56 16.99 129.22 14.34 132.49 14.34C135.76 14.34 138.42 17 138.42 20.27C138.43 23.55 135.77 26.2 132.49 26.2Z" fill="white"/>
</g>
<defs>
<clipPath id="clip0_53_322">
<rect width="265" height="264" fill="white"/>
</clipPath>
</defs>
</svg>
